<?xml version="1.0" standalone="no"?>
<!DOCTYPE svg PUBLIC "-//W3C//DTD SVG 20010904//EN"
 "http://www.w3.org/TR/2001/REC-SVG-20010904/DTD/svg10.dtd">
<svg version="1.0" xmlns="http://www.w3.org/2000/svg"
 width="3264.000000pt" height="3264.000000pt" viewBox="0 0 3264.000000 3264.000000"
 preserveAspectRatio="xMidYMid meet">

<g transform="translate(0.000000,3264.000000) scale(0.100000,-0.100000)"
fill="#000000" stroke="none">
<path d="M10395 32410 c-27 -4 -74 -12 -104 -19 -29 -6 -92 -11 -140 -11 -49
0 -103 -6 -126 -15 -22 -8 -66 -14 -98 -15 -32 0 -74 -7 -94 -15 -19 -8 -56
-15 -82 -15 -25 -1 -57 -7 -71 -15 -14 -8 -42 -14 -63 -15 -21 0 -48 -5 -60
-12 -12 -6 -42 -15 -67 -19 -25 -4 -58 -11 -75 -17 -16 -6 -55 -18 -85 -27
-95 -27 -262 -84 -437 -149 -148 -55 -442 -199 -613 -300 -145 -85 -387 -246
-459 -305 -25 -19 -60 -46 -78 -58 -19 -13 -44 -32 -56 -44 -12 -12 -56 -48
-96 -81 -92 -74 -423 -400 -488 -481 -27 -33 -68 -83 -93 -111 -43 -49 -68
-82 -150 -196 -19 -27 -43 -59 -52 -72 -10 -12 -32 -45 -50 -73 -17 -27 -60
-93 -95 -146 -34 -53 -66 -105 -70 -115 -4 -11 -19 -37 -33 -59 -46 -73 -50
-80 -61 -105 -6 -14 -25 -54 -43 -90 -19 -36 -52 -110 -76 -164 -23 -54 -46
-106 -51 -115 -10 -18 -58 -145 -66 -176 -3 -11 -11 -33 -18 -50 -19 -46 -36
-96 -45 -135 -4 -19 -12 -46 -18 -60 -5 -14 -17 -50 -25 -80 -8 -30 -22 -80
-31 -110 -8 -30 -17 -68 -19 -85 -4 -28 -10 -53 -39 -175 -6 -25 -14 -74 -18
-110 -4 -36 -12 -81 -19 -100 -6 -19 -11 -64 -11 -100 0 -36 -7 -92 -15 -125
-11 -48 -14 -160 -15 -565 0 -278 -7 -973 -15 -1545 -9 -644 -15 -1834 -15
-3125 -1 -1147 -6 -2314 -11 -2595 -5 -280 -12 -1477 -15 -2659 -6 -1988 -5
-2153 10 -2210 52 -189 102 -305 187 -431 35 -53 254 -275 271 -275 5 0 24
-11 41 -24 39 -30 223 -117 292 -138 147 -46 313 -63 462 -48 241 25 364 78
693 295 102 67 219 143 260 170 161 104 437 286 480 315 58 40 366 241 407
266 27 16 91 58 257 170 16 10 46 30 66 44 21 14 69 46 107 71 37 25 91 60
118 77 28 17 64 41 80 52 17 12 80 53 140 92 122 79 286 186 692 454 149 98
307 202 349 229 190 122 262 169 340 222 170 115 665 439 737 482 20 12 35 27
32 31 -3 5 -1 12 5 15 11 7 -18 28 -320 231 -242 163 -221 149 -330 219 -115
74 -123 80 -229 152 -104 72 -158 108 -195 131 -16 9 -47 31 -70 47 -47 34
-564 382 -604 406 -15 9 -52 34 -84 55 -67 46 -420 283 -891 597 l-118 79 6
1237 c4 680 11 1260 16 1290 5 32 9 955 10 2235 0 2577 9 3526 33 3601 9 28
16 61 16 75 0 33 63 215 106 309 43 93 116 213 161 264 18 20 33 41 33 46 0
15 150 163 228 225 210 166 376 246 657 316 125 31 137 32 330 32 110 0 222
-6 250 -12 28 -6 73 -16 100 -21 117 -24 305 -97 430 -168 33 -18 175 -113
363 -242 67 -46 145 -98 173 -115 28 -18 60 -40 73 -51 12 -11 28 -22 36 -25
23 -9 573 -379 620 -417 14 -11 30 -21 36 -21 6 0 18 -7 25 -16 7 -9 20 -19
29 -23 8 -3 76 -47 150 -96 74 -49 143 -94 152 -100 15 -9 415 -279 578 -390
97 -67 117 -80 210 -141 47 -31 87 -60 88 -65 2 -5 9 -9 15 -9 6 0 89 -53 185
-117 96 -65 185 -125 198 -133 12 -8 60 -41 106 -72 46 -32 88 -58 94 -58 6 0
19 -9 30 -21 10 -12 32 -28 47 -36 15 -8 38 -23 51 -34 13 -11 37 -28 55 -37
33 -18 343 -225 401 -267 32 -24 200 -137 375 -253 39 -25 72 -49 75 -52 5 -5
121 -81 162 -105 9 -5 123 -82 253 -170 131 -88 248 -167 261 -175 12 -8 80
-53 151 -100 70 -47 135 -90 144 -95 9 -6 83 -55 163 -110 81 -55 164 -111
185 -125 21 -14 50 -33 65 -42 14 -10 38 -26 52 -35 15 -10 43 -29 64 -43 21
-14 64 -43 96 -66 118 -81 149 -101 170 -106 22 -6 43 7 205 117 41 28 85 56
99 63 14 6 36 20 50 30 14 11 86 59 160 107 74 48 168 110 208 136 40 27 75
49 78 49 4 0 23 14 44 30 21 17 41 30 45 30 4 0 24 12 44 28 20 15 44 32 53
37 9 6 49 33 90 60 40 28 78 52 83 55 6 3 56 35 110 71 151 100 217 143 236
154 9 6 36 24 60 40 98 64 122 80 140 90 10 5 63 40 116 76 116 78 339 224
513 337 69 44 145 94 170 112 41 28 86 58 129 85 9 6 32 21 51 35 19 14 47 32
61 40 102 59 134 84 126 97 -3 5 -70 52 -149 105 -169 112 -316 210 -893 596
-236 158 -437 292 -447 297 -9 6 -50 33 -90 61 -123 85 -299 205 -373 254
-163 109 -308 205 -403 269 -46 31 -98 65 -116 76 -17 11 -47 31 -66 45 -19
14 -42 30 -51 35 -9 6 -90 60 -179 120 -159 108 -184 125 -230 155 -26 17
-524 351 -822 551 -280 187 -645 431 -673 449 -13 8 -54 36 -92 62 -79 56 -86
60 -216 147 -54 36 -113 75 -130 86 -18 11 -49 32 -68 48 -20 15 -41 27 -47
27 -6 0 -23 11 -39 24 -15 13 -42 32 -59 42 -29 17 -148 98 -347 235 -43 30
-89 61 -102 69 -13 8 -61 41 -107 73 -46 31 -86 57 -90 57 -3 0 -32 18 -64 40
-33 22 -88 60 -124 83 -36 24 -76 51 -90 60 -143 98 -229 156 -260 177 -21 14
-104 70 -185 125 -81 55 -155 105 -163 110 -9 6 -78 52 -154 103 -75 50 -140
92 -144 92 -3 0 -22 14 -41 30 -18 17 -39 30 -44 30 -6 0 -28 13 -48 29 -32
25 -312 196 -351 214 -8 4 -35 18 -59 32 -24 14 -50 25 -56 25 -7 0 -18 7 -25
15 -7 8 -20 15 -30 15 -10 0 -23 7 -30 15 -7 8 -19 15 -26 15 -8 0 -38 12 -67
26 -44 22 -184 79 -320 130 -20 8 -45 14 -54 14 -9 0 -24 6 -32 13 -9 7 -43
21 -76 31 -33 9 -73 22 -90 28 -16 5 -48 14 -70 18 -22 4 -53 12 -70 18 -92
31 -136 42 -166 42 -19 1 -45 7 -59 15 -14 8 -44 14 -68 15 -23 0 -59 7 -79
15 -19 8 -62 15 -94 15 -32 0 -78 6 -101 14 -24 8 -97 16 -163 19 -66 3 -133
11 -150 18 -35 14 -479 22 -560 9z"/>
<path d="M7221 4584 c-162 -27 -270 -105 -334 -242 l-32 -67 -6 -1225 c-6
-1334 -3 -1282 -62 -1383 -30 -50 -99 -99 -169 -118 -23 -6 -124 -15 -223 -19
-155 -6 -186 -10 -221 -28 -67 -34 -99 -67 -134 -139 -31 -63 -33 -74 -33
-168 0 -93 3 -108 31 -167 61 -127 164 -196 331 -219 87 -13 386 -6 526 12
427 54 718 265 834 604 11 33 31 98 43 145 l22 85 3 1255 c3 790 0 1278 -6
1318 -6 36 -26 96 -47 138 -63 127 -159 192 -327 219 -51 8 -96 14 -102 14 -5
-1 -48 -7 -94 -15z"/>
<path d="M20343 4584 c-156 -26 -264 -101 -319 -219 -57 -123 -54 -39 -54
-1681 0 -1462 1 -1513 19 -1587 26 -99 49 -142 108 -199 100 -98 264 -142 440
-119 156 20 274 94 332 211 64 125 61 53 61 1696 0 1626 2 1557 -56 1679 -49
106 -165 190 -289 213 -108 19 -159 21 -242 6z"/>
<path d="M10880 4576 c-88 -20 -178 -72 -247 -142 -103 -105 -78 -57 -491
-944 -55 -118 -118 -253 -140 -300 -22 -47 -81 -175 -132 -285 -51 -110 -111
-238 -133 -285 -21 -47 -86 -186 -144 -310 -58 -124 -121 -259 -140 -300 -20
-41 -78 -167 -130 -280 -52 -113 -113 -240 -134 -283 -72 -141 -115 -286 -105
-349 36 -225 235 -353 497 -319 108 14 164 37 225 93 89 82 163 216 289 523
32 77 69 150 82 163 l24 22 824 0 824 0 19 -25 c11 -14 35 -60 52 -103 148
-357 196 -452 275 -540 154 -171 509 -188 666 -31 50 50 87 125 95 191 11 96
-17 192 -119 408 -24 52 -77 165 -117 250 -40 85 -112 238 -160 340 -48 102
-98 210 -113 240 -14 30 -76 163 -137 295 -62 132 -139 296 -170 365 -32 69
-95 204 -140 300 -104 222 -121 259 -237 509 -239 516 -283 596 -384 684 -126
110 -317 153 -499 113z m228 -1216 c33 -80 105 -251 160 -380 275 -653 266
-628 252 -645 -11 -13 -75 -15 -506 -15 -444 0 -494 2 -502 16 -7 12 3 46 33
118 78 185 361 860 405 963 42 99 62 122 86 99 6 -6 38 -76 72 -156z"/>
<path d="M14650 4576 c-136 -30 -237 -112 -281 -228 l-24 -63 0 -1605 0 -1605
23 -61 c32 -83 97 -156 175 -193 153 -74 388 -57 512 37 62 47 120 155 135
252 6 39 10 379 10 857 0 548 3 794 11 798 19 13 48 -27 175 -244 70 -119 149
-252 175 -296 26 -44 125 -213 220 -375 192 -330 212 -361 267 -418 108 -112
314 -142 462 -67 48 24 135 111 181 181 15 21 73 120 129 219 57 99 122 212
145 250 23 39 86 147 140 240 264 456 310 530 330 530 20 0 20 -13 25 -850 6
-957 1 -900 84 -1013 85 -114 242 -166 431 -142 141 18 241 84 300 199 56 112
56 106 53 1751 -4 1650 0 1553 -63 1669 -34 62 -100 123 -163 151 -104 46
-301 52 -416 11 -109 -38 -212 -138 -295 -289 -21 -37 -61 -110 -91 -162 -29
-52 -104 -189 -167 -303 -62 -114 -122 -222 -132 -240 -24 -44 -355 -640 -508
-917 -69 -124 -128 -228 -131 -232 -20 -20 -51 9 -93 85 -25 45 -114 206 -198
357 -85 151 -167 300 -184 330 -16 30 -33 60 -37 65 -4 6 -25 44 -47 85 -39
72 -199 362 -298 540 -26 47 -61 110 -78 140 -78 145 -173 310 -204 357 -71
107 -178 180 -297 202 -77 14 -206 13 -276 -3z"/>
<path d="M24055 4576 c-89 -18 -172 -63 -240 -131 -100 -98 -118 -129 -290
-500 -59 -126 -129 -277 -156 -333 -27 -57 -49 -105 -49 -107 0 -1 -27 -61
-61 -131 -167 -353 -184 -389 -272 -579 -36 -77 -82 -176 -102 -220 -21 -44
-53 -114 -72 -155 -57 -123 -168 -359 -213 -455 -46 -97 -89 -190 -125 -270
-12 -27 -41 -88 -63 -135 -130 -277 -152 -339 -152 -436 0 -264 286 -418 597
-323 104 32 190 126 281 304 42 83 182 408 182 423 0 5 10 18 23 30 l23 22
825 0 c453 0 829 -4 835 -8 17 -11 48 -76 119 -247 140 -336 207 -435 339
-500 133 -65 329 -69 453 -9 103 50 176 151 189 264 10 94 -16 177 -144 450
-22 47 -64 139 -95 205 -30 66 -76 165 -102 220 -108 229 -247 528 -282 605
-14 30 -52 110 -84 178 -32 67 -59 124 -59 126 0 4 -33 76 -127 276 -19 41
-64 136 -98 210 -57 123 -82 176 -173 370 -16 36 -45 99 -64 140 -210 454
-239 504 -343 598 -129 114 -309 157 -500 118z m153 -1059 c6 -7 36 -73 67
-147 186 -442 217 -517 225 -535 5 -11 41 -96 80 -190 73 -174 77 -184 105
-247 9 -20 15 -45 13 -55 -3 -17 -30 -18 -503 -21 -451 -2 -501 -1 -512 14 -8
11 -9 22 -3 33 5 9 33 72 61 141 28 69 60 145 71 170 21 48 28 64 51 120 154
373 286 681 303 708 16 25 27 28 42 9z"/>
</g>
</svg>
