<?xml version="1.0" standalone="no"?>
<!DOCTYPE svg PUBLIC "-//W3C//DTD SVG 20010904//EN"
 "http://www.w3.org/TR/2001/REC-SVG-20010904/DTD/svg10.dtd">
<svg version="1.0" xmlns="http://www.w3.org/2000/svg"
 width="3264.000000pt" height="3264.000000pt" viewBox="0 0 3264.000000 3264.000000"
 preserveAspectRatio="xMidYMid meet">

<g transform="translate(0.000000,3264.000000) scale(0.100000,-0.100000)"
fill="#000000" stroke="none">
<path d="M10490 31968 c-14 -5 -79 -12 -145 -15 -66 -2 -132 -9 -146 -14 -15
-6 -60 -14 -100 -19 -76 -9 -171 -27 -294 -55 -38 -9 -89 -20 -112 -25 -23 -5
-66 -16 -95 -25 -29 -9 -91 -27 -138 -41 -47 -14 -100 -32 -118 -40 -18 -8
-39 -14 -47 -14 -9 0 -23 -4 -33 -10 -9 -5 -55 -23 -102 -41 -93 -33 -87 -31
-215 -87 -85 -37 -301 -142 -335 -162 -202 -119 -267 -160 -385 -240 -255
-172 -399 -291 -649 -538 -182 -181 -246 -250 -348 -380 -20 -26 -50 -62 -65
-81 -31 -37 -60 -80 -190 -276 -47 -71 -96 -149 -108 -172 -13 -23 -32 -54
-42 -70 -24 -33 -135 -254 -169 -335 -13 -32 -35 -81 -48 -110 -13 -29 -35
-87 -50 -128 -15 -41 -34 -90 -42 -108 -8 -18 -14 -39 -14 -47 0 -8 -6 -29
-14 -47 -18 -44 -63 -193 -84 -283 -6 -22 -16 -62 -22 -90 -7 -27 -16 -72 -20
-100 -5 -27 -13 -63 -19 -78 -6 -16 -11 -50 -11 -76 0 -27 -7 -68 -15 -91 -8
-23 -15 -69 -15 -102 0 -32 -7 -89 -14 -126 -23 -104 -36 -1367 -47 -4492 -5
-1504 -14 -2964 -19 -3245 -4 -280 -9 -1430 -9 -2554 -1 -2203 -5 -2037 47
-2211 20 -69 92 -215 139 -283 53 -77 219 -242 293 -291 92 -61 218 -119 340
-157 103 -32 108 -32 300 -33 207 0 216 2 385 61 94 32 181 80 360 198 83 54
188 123 235 153 47 30 117 75 155 100 39 25 221 145 405 267 184 122 350 230
367 241 18 10 63 40 100 65 74 50 409 271 538 354 73 47 254 166 685 450 164
108 288 189 460 300 90 58 217 142 410 272 25 16 92 61 150 98 58 38 161 105
230 150 69 45 155 101 192 124 37 24 69 49 72 57 3 8 -5 23 -17 35 -12 12
-224 156 -472 322 -247 165 -610 408 -805 538 -195 131 -598 401 -895 599
-297 199 -548 371 -557 383 -16 20 -18 54 -18 352 0 182 7 794 15 1360 9 643
15 1768 15 2995 0 2225 12 3340 35 3433 8 32 15 70 15 83 0 14 5 35 12 47 6
12 15 35 19 52 11 44 29 92 61 163 15 35 28 65 28 68 0 16 120 197 176 266
136 167 312 305 521 412 68 34 280 106 314 106 15 0 44 7 65 17 33 13 79 16
284 16 205 0 251 -3 284 -16 21 -10 51 -17 67 -17 70 0 363 -122 464 -194 16
-11 37 -25 47 -31 23 -13 282 -188 288 -195 5 -5 223 -149 251 -165 9 -6 93
-61 185 -124 93 -63 192 -129 219 -147 28 -18 57 -39 65 -46 15 -14 44 -32 70
-44 8 -4 17 -11 20 -15 3 -4 73 -52 155 -106 83 -55 203 -135 268 -179 65 -43
131 -86 147 -95 16 -9 45 -28 64 -43 19 -14 39 -26 44 -26 5 0 15 -7 22 -15 7
-8 42 -35 79 -58 36 -24 76 -50 88 -58 11 -8 101 -68 200 -133 98 -65 183
-125 189 -132 6 -8 15 -14 19 -14 5 0 87 -53 182 -117 96 -65 182 -122 191
-128 9 -5 33 -22 53 -37 20 -16 40 -28 44 -28 4 0 24 -12 44 -27 20 -16 44
-32 53 -38 9 -5 49 -32 89 -60 40 -27 81 -54 90 -60 20 -11 601 -402 789 -530
69 -47 134 -92 145 -99 11 -7 33 -21 49 -32 15 -10 50 -32 76 -49 76 -47 253
-165 280 -186 14 -10 38 -26 54 -35 16 -9 41 -27 55 -40 14 -13 31 -24 37 -24
6 0 22 -9 35 -21 28 -24 244 -169 253 -169 3 0 42 -26 85 -57 44 -32 129 -89
188 -128 59 -38 113 -73 118 -78 6 -4 49 -34 96 -65 48 -31 131 -87 186 -124
64 -45 105 -66 119 -64 18 4 109 60 124 77 5 5 120 81 190 124 32 20 317 206
384 251 16 10 47 30 70 43 23 13 45 30 49 37 4 8 13 14 20 14 7 0 41 20 77 45
74 52 63 44 275 184 88 58 171 111 183 118 13 7 37 23 52 35 16 13 48 34 71
48 23 14 63 39 89 55 25 17 53 35 62 40 9 6 92 61 185 123 92 61 175 116 183
122 8 5 42 27 75 48 133 85 482 315 505 333 14 11 36 24 50 30 14 6 36 21 50
34 14 12 34 25 45 29 11 3 26 15 32 26 11 17 10 21 -15 34 -15 8 -36 23 -46
35 -11 12 -25 21 -32 21 -7 0 -28 13 -46 28 -18 16 -40 31 -48 34 -8 3 -163
105 -345 227 -445 298 -796 533 -817 546 -9 5 -43 28 -75 49 -32 22 -76 51
-98 66 -22 14 -65 44 -95 65 -60 42 -402 274 -429 290 -9 6 -32 22 -51 36 -19
14 -40 28 -45 30 -6 2 -64 40 -129 84 -65 44 -125 85 -134 90 -10 6 -33 22
-53 38 -20 15 -40 27 -44 27 -4 0 -24 12 -44 28 -20 15 -44 32 -53 37 -9 6
-49 33 -89 60 -40 28 -81 55 -90 60 -21 12 -689 460 -812 545 -48 33 -92 60
-97 60 -6 0 -10 4 -10 10 0 5 -18 19 -40 30 -23 12 -49 28 -58 36 -9 9 -39 29
-67 47 -27 17 -128 83 -224 146 -95 64 -180 121 -189 126 -10 6 -32 22 -50 38
-18 15 -39 27 -46 27 -7 0 -26 13 -42 30 -16 16 -36 30 -45 30 -9 0 -29 13
-45 30 -16 16 -32 30 -36 30 -6 0 -114 69 -205 130 -11 8 -53 36 -92 63 -39
26 -103 68 -142 95 -38 26 -85 56 -102 67 -18 11 -61 40 -96 65 -35 25 -71 50
-80 55 -9 6 -32 21 -51 35 -19 14 -42 30 -52 35 -10 6 -51 34 -93 63 -41 28
-77 52 -81 52 -3 0 -23 14 -44 30 -21 17 -40 30 -42 30 -5 0 -284 183 -303
198 -10 8 -110 76 -152 103 -12 8 -148 100 -303 204 -155 105 -289 195 -298
200 -9 6 -33 22 -53 38 -20 15 -40 27 -44 27 -4 0 -24 14 -45 30 -21 17 -41
30 -45 30 -3 0 -34 19 -68 43 -74 51 -196 127 -204 127 -3 0 -38 19 -77 43
-124 74 -346 178 -511 241 -55 21 -109 42 -120 47 -34 14 -107 39 -180 61 -38
11 -79 24 -90 29 -11 4 -36 11 -55 15 -19 3 -39 10 -45 14 -9 8 -60 20 -168
40 -26 5 -62 13 -80 19 -49 15 -143 31 -233 40 -44 5 -89 13 -100 18 -10 6
-73 13 -139 16 -66 3 -136 11 -155 16 -46 14 -576 13 -610 -1z"/>
<path d="M7453 4894 c-185 -33 -309 -154 -343 -333 -6 -35 -10 -456 -10 -1181
0 -1225 0 -1234 -55 -1320 -64 -99 -121 -121 -345 -131 -109 -5 -194 -13 -225
-23 -68 -21 -124 -71 -160 -142 -28 -54 -30 -67 -30 -164 0 -93 3 -112 27
-162 52 -111 140 -180 268 -210 69 -16 394 -16 535 1 554 65 854 357 905 879
14 141 13 2344 -1 2435 -15 102 -57 184 -125 246 -67 61 -118 85 -227 105 -96
18 -115 18 -214 0z"/>
<path d="M11068 4895 c-114 -20 -200 -65 -283 -149 -87 -88 -109 -126 -245
-418 -60 -130 -134 -288 -164 -353 -31 -64 -56 -118 -56 -120 0 -1 -22 -49
-49 -106 -27 -57 -95 -203 -151 -324 -56 -121 -134 -287 -173 -370 -38 -82
-82 -177 -97 -210 -15 -33 -46 -100 -70 -150 -84 -179 -193 -411 -217 -465
-14 -30 -76 -163 -138 -295 -146 -310 -164 -381 -129 -501 53 -184 269 -282
516 -235 89 17 161 62 221 136 54 68 148 252 232 460 31 77 66 148 77 158 19
16 73 17 822 17 l803 0 20 -23 c11 -12 48 -89 82 -172 191 -461 273 -553 527
-584 237 -29 430 94 450 285 12 115 -10 178 -194 569 -44 94 -117 249 -162
345 -45 96 -100 213 -122 260 -22 47 -66 141 -98 210 -31 69 -80 174 -109 233
-28 60 -51 110 -51 112 0 1 -25 56 -56 121 -87 183 -266 568 -366 784 -170
369 -254 533 -307 597 -52 64 -133 125 -206 156 -36 16 -195 49 -220 46 -5 -1
-45 -7 -87 -14z m164 -1150 c26 -60 91 -213 144 -340 53 -126 139 -331 191
-455 70 -165 93 -228 86 -240 -9 -13 -71 -15 -490 -18 -420 -2 -482 0 -493 13
-10 13 -7 28 18 88 17 39 67 158 111 262 185 441 334 791 338 798 3 5 14 7 26
5 17 -2 32 -27 69 -113z"/>
<path d="M14732 4894 c-191 -32 -306 -145 -333 -327 -13 -91 -12 -2976 2
-3057 26 -160 121 -268 269 -306 90 -23 252 -15 335 16 69 26 156 107 182 168
43 100 43 103 43 924 0 432 3 793 6 802 3 9 11 16 16 16 11 0 45 -41 64 -75 6
-11 49 -83 94 -160 46 -77 130 -221 188 -320 57 -99 140 -241 184 -315 44 -74
99 -166 121 -205 117 -200 167 -257 266 -303 48 -23 70 -27 151 -27 137 0 186
19 276 109 71 71 80 85 271 416 486 839 524 901 542 898 15 -3 16 -79 21 -828
5 -814 5 -826 27 -882 28 -73 48 -105 97 -150 72 -67 163 -98 292 -99 231 -1
364 95 415 301 12 45 14 314 14 1550 0 1631 2 1559 -58 1673 -55 105 -139 158
-287 183 -73 12 -97 12 -175 -1 -125 -20 -178 -46 -256 -124 -77 -78 -104
-121 -324 -521 -396 -719 -399 -725 -530 -960 -50 -91 -134 -241 -185 -334
-52 -92 -100 -170 -108 -173 -7 -3 -22 3 -31 13 -15 16 -103 169 -196 339 -12
22 -45 81 -72 130 -28 50 -67 122 -88 160 -21 39 -89 160 -150 270 -62 110
-129 232 -150 270 -21 39 -57 104 -80 145 -45 81 -45 80 -185 335 -124 226
-154 270 -217 332 -67 65 -141 100 -251 118 -101 17 -93 17 -200 -1z"/>
<path d="M20231 4894 c-130 -24 -219 -79 -281 -175 -74 -115 -70 -22 -70
-1680 0 -1601 -2 -1537 52 -1642 80 -158 284 -239 507 -203 112 18 187 51 245
109 55 55 84 110 108 206 17 70 18 147 18 1535 0 1380 -1 1465 -18 1537 -44
181 -153 279 -349 314 -101 17 -111 17 -212 -1z"/>
<path d="M23886 4894 c-84 -16 -175 -55 -237 -104 -99 -79 -169 -202 -397
-700 -13 -30 -45 -98 -70 -150 -24 -52 -60 -129 -79 -170 -19 -41 -60 -127
-90 -190 -30 -63 -109 -232 -175 -374 -66 -143 -144 -311 -174 -374 -30 -63
-54 -115 -54 -117 0 -2 -29 -65 -65 -140 -36 -75 -75 -157 -86 -183 -12 -26
-42 -90 -66 -142 -25 -52 -69 -147 -98 -210 -89 -195 -135 -294 -144 -310 -23
-42 -44 -142 -44 -207 0 -61 5 -82 32 -138 35 -70 101 -133 171 -163 132 -55
341 -43 451 26 95 61 175 190 303 493 48 112 94 210 103 217 21 15 1603 18
1632 2 10 -5 59 -105 116 -237 113 -260 149 -327 218 -400 81 -86 144 -115
282 -132 153 -19 294 25 373 114 51 58 70 98 78 167 13 109 -12 187 -153 488
-22 47 -66 141 -98 210 -32 69 -82 176 -111 238 -30 63 -54 115 -54 117 0 2
-31 69 -70 150 -38 81 -70 148 -70 150 0 1 -26 58 -59 126 -32 68 -70 149 -84
179 -13 30 -44 96 -67 145 -23 50 -82 176 -130 280 -82 178 -104 226 -211 453
-44 92 -88 188 -134 287 -140 306 -215 427 -308 498 -67 51 -155 88 -245 102
-100 17 -84 17 -186 -1z m117 -1041 c8 -10 39 -74 67 -143 29 -69 58 -138 65
-155 7 -16 43 -102 80 -190 36 -88 70 -169 75 -180 59 -131 190 -453 190 -466
0 -9 -7 -20 -16 -23 -9 -3 -228 -6 -489 -6 -385 0 -475 3 -484 14 -10 12 38
140 119 321 5 11 39 92 75 180 36 88 72 174 80 190 28 61 175 414 175 420 0
10 32 55 40 55 4 0 14 -8 23 -17z"/>
</g>
</svg>
