<?xml version="1.0" standalone="no"?>
<!DOCTYPE svg PUBLIC "-//W3C//DTD SVG 20010904//EN"
 "http://www.w3.org/TR/2001/REC-SVG-20010904/DTD/svg10.dtd">
<svg version="1.0" xmlns="http://www.w3.org/2000/svg"
 width="96.000000pt" height="96.000000pt" viewBox="0 0 96.000000 96.000000"
 preserveAspectRatio="xMidYMid meet">

<g transform="translate(0.000000,96.000000) scale(0.100000,-0.100000)"
fill="#000000" stroke="none">
<path d="M0 480 l0 -480 480 0 480 0 0 480 0 480 -480 0 -480 0 0 -480z m489
331 c50 -34 93 -61 96 -61 4 0 26 14 50 30 24 17 53 30 64 30 20 0 21 -5 21
-174 l0 -174 -29 -31 c-47 -50 -89 -44 -200 29 -50 33 -96 60 -101 60 -5 0
-32 -14 -58 -30 -91 -56 -97 -44 -89 168 4 122 8 149 24 171 51 68 100 64 222
-18z m-174 -480 c3 -5 -7 -11 -22 -13 l-28 -4 28 -12 c31 -13 37 -48 10 -54
-26 -6 -63 3 -63 14 0 6 11 7 24 4 14 -3 27 -2 30 3 3 5 -5 12 -19 15 -24 6
-34 34 -18 49 10 10 51 8 58 -2z m55 -17 l14 -25 19 25 c10 14 23 24 28 20 12
-7 12 -84 -1 -84 -5 0 -10 7 -10 15 0 18 -16 20 -24 3 -3 -9 -9 -7 -20 6 -16
19 -16 19 -16 -1 0 -39 -18 -34 -22 6 -6 66 8 81 32 35z m155 -11 c11 -21 21
-41 23 -45 2 -4 -13 -4 -32 -1 -22 3 -42 1 -51 -7 -11 -9 -15 -9 -15 -1 0 17
39 91 48 91 5 0 17 -17 27 -37z m205 27 c0 -6 -7 -10 -15 -10 -10 0 -15 -10
-15 -34 0 -19 -4 -38 -10 -41 -6 -4 -10 10 -10 33 0 31 -4 41 -19 45 -16 4
-21 -2 -26 -24 -4 -16 -4 -33 0 -39 3 -5 -1 -10 -9 -10 -9 0 -16 7 -16 15 0 8
-7 15 -15 15 -8 0 -15 -9 -15 -21 0 -11 -4 -17 -10 -14 -5 3 -10 26 -10 50 l0
44 85 0 c48 0 85 -4 85 -9z m-440 -150 c0 -39 -21 -64 -38 -45 -4 4 -1 10 6
12 6 3 12 20 12 39 0 19 5 34 10 34 6 0 10 -18 10 -40z m104 -1 c9 -23 14 -44
10 -48 -4 -3 -9 0 -11 7 -3 6 -15 12 -28 12 -13 0 -25 -6 -28 -12 -2 -7 -7
-10 -11 -7 -10 10 24 89 39 89 7 0 20 -19 29 -41z m81 21 c3 -11 10 -20 15
-20 5 0 12 9 15 20 3 11 13 20 21 20 10 0 14 -13 14 -46 0 -32 -4 -44 -12 -41
-7 2 -11 12 -10 22 3 16 1 17 -12 6 -13 -11 -19 -11 -31 -1 -13 10 -15 9 -15
-9 0 -11 -4 -21 -10 -21 -5 0 -10 20 -10 45 0 48 23 64 35 25z m125 -26 c0
-32 -4 -44 -12 -42 -14 5 -23 51 -14 74 11 30 26 12 26 -32z m103 5 c18 -42
16 -62 -5 -41 -16 16 -45 15 -51 0 -2 -7 -8 -10 -12 -6 -10 10 25 88 39 88 6
0 19 -19 29 -41z"/>
<path d="M332 788 c-14 -14 -17 -212 -4 -206 19 7 182 113 182 118 0 8 -142
100 -155 100 -6 0 -16 -5 -23 -12z"/>
<path d="M553 638 c-51 -34 -89 -66 -87 -70 3 -5 36 -29 74 -54 58 -38 72 -43
90 -34 18 10 20 20 20 115 0 58 -1 105 -3 105 -1 0 -44 -28 -94 -62z"/>
<path d="M490 296 c0 -9 5 -16 10 -16 6 0 10 4 10 9 0 6 -4 13 -10 16 -5 3
-10 -1 -10 -9z"/>
<path d="M585 310 c-3 -5 3 -10 14 -10 12 0 21 5 21 10 0 6 -6 10 -14 10 -8 0
-18 -4 -21 -10z"/>
</g>
</svg>
